<svg width="97" height="92" viewBox="0 0 97 92" fill="none" xmlns="http://www.w3.org/2000/svg">
<path fill-rule="evenodd" clip-rule="evenodd" d="M10.5828 66.0262C7.04226 60.104 5.0004 53.2798 5.0004 46C5.0004 23.3543 24.5411 5 48.6506 5C72.76 5 92.3008 23.3543 92.3008 46C92.3008 68.6457 72.76 87 48.6506 87C40.9003 87 33.6349 85.0821 27.3299 81.7566L5.0004 87L10.5828 66.0262Z" fill="#FCA170" stroke="#FC813E" stroke-width="9" stroke-linecap="round" stroke-linejoin="round"/>
<path d="M49.5075 47.4714C49.0322 47.025 48.2659 47.025 47.7906 47.4714C47.3153 47.9179 47.3153 48.6377 47.7906 49.0841C48.2659 49.5306 49.0322 49.5306 49.5075 49.0841C49.978 48.6377 49.978 47.9179 49.5075 47.4714" stroke="white" stroke-width="14" stroke-linecap="round" stroke-linejoin="round"/>
<path d="M68.9108 47.4714C68.4355 47.025 67.6692 47.025 67.1939 47.4714C66.7186 47.9179 66.7186 48.6377 67.1939 49.0841C67.6692 49.5306 68.4355 49.5306 68.9108 49.0841C69.3813 48.6377 69.3813 47.9179 68.9108 47.4714" stroke="white" stroke-width="14" stroke-linecap="round" stroke-linejoin="round"/>
<path d="M30.1091 47.4714C29.6338 47.025 28.8675 47.025 28.3922 47.4714C27.9169 47.9179 27.9169 48.6377 28.3922 49.0841C28.8675 49.5306 29.6338 49.5306 30.1091 49.0841C30.5795 48.6377 30.5795 47.9179 30.1091 47.4714" stroke="white" stroke-width="14" stroke-linecap="round" stroke-linejoin="round"/>
</svg>
