<svg width="44" height="43" viewBox="0 0 44 43" fill="none" xmlns="http://www.w3.org/2000/svg">
<path d="M31.4759 26.7181H29.5325L28.8436 26.0805C31.2545 23.3884 32.706 19.8934 32.706 16.0914C32.706 7.61364 25.5471 0.741699 16.7153 0.741699C7.88352 0.741699 0.724609 7.61364 0.724609 16.0914C0.724609 24.5691 7.88352 31.4411 16.7153 31.4411C20.6761 31.4411 24.317 30.0478 27.1216 27.7335L27.7858 28.3947V30.2603L40.0863 42.0442L43.7519 38.5255L31.4759 26.7181ZM16.7153 26.7181C10.5896 26.7181 5.64482 21.9715 5.64482 16.0914C5.64482 10.2113 10.5896 5.46468 16.7153 5.46468C22.841 5.46468 27.7858 10.2113 27.7858 16.0914C27.7858 21.9715 22.841 26.7181 16.7153 26.7181Z" fill="#878686"/>
</svg>
